<svg width="118" height="28" viewBox="0 0 118 28" fill="none" xmlns="http://www.w3.org/2000/svg">
<path d="M39.1119 7.99842C39.1119 5.66693 37.8364 4.48406 35.1582 4.48406H30.1195V2.41212H38.2516V0.194383H27.6804V11.5923H35.1593C37.8065 11.5923 39.113 10.183 39.113 7.99842H39.1119ZM34.8227 9.37567H30.1195V6.62338H34.8227C36.1934 6.62338 36.6407 7.09277 36.6407 7.99953C36.6407 8.90628 36.1934 9.37567 34.8227 9.37567ZM50.673 3.46466L43.7199 11.5923H41.3118V0.194383H43.752V8.35406L50.7195 0.194383H53.1276V11.5923H50.673V3.46466ZM64.6421 8.03266C64.6421 7.20653 63.8605 6.8509 62.7921 6.8509H59.0764V4.72925H62.5684C63.6678 4.72925 64.2269 4.29189 64.2269 3.56406C64.2269 2.7545 63.525 2.25197 61.2298 2.25197C58.9347 2.25197 57.8973 2.93121 57.7378 3.75734H55.3297C55.4892 1.57163 57.6415 0.00110445 61.2774 0.00110445C64.9134 0.00110445 66.7148 1.28006 66.7148 3.23935C66.7148 4.48627 65.901 5.32786 64.7695 5.60287C65.9176 5.81272 67.1288 6.65431 67.1288 8.25907C67.1288 10.4448 65.0551 11.7878 61.3871 11.7878C57.4976 11.7878 55.3762 10.1521 55.2168 7.9178H57.6404C57.7998 8.75939 58.8682 9.53692 61.3871 9.53692C63.7464 9.53692 64.641 9.00237 64.641 8.03156L64.6421 8.03266ZM71.7867 11.5934H69.3465V0.194383H71.7867V4.62985H78.7065V0.194383H81.1622V11.5923H78.7065V6.88182H71.7867V11.5923V11.5934ZM94.7018 11.5934H83.9855V0.194383H94.7018V2.41322H86.4257V4.72815H94.3984V6.86526H86.4257V9.37457H94.7018V11.5934ZM103.519 11.7867L102.962 11.7878C99.1515 11.7878 96.6327 9.91022 96.6327 6.29867V5.48911C96.6327 1.87867 99.1515 0 102.962 0H103.519C106.98 0 109.308 1.40928 109.723 4.29079H107.108C106.772 2.91464 105.529 2.2343 103.52 2.2343H102.964C100.507 2.2343 99.1216 3.44809 99.1216 5.50458V6.28211C99.1216 8.33859 100.509 9.55238 102.964 9.55238H103.52C105.53 9.55238 106.774 8.87315 107.108 7.4959H109.723C109.309 10.3774 106.98 11.7867 103.519 11.7867ZM39.3677 16.4077H42.8121V27.8056H40.404V19.3367L36.5931 27.8056H33.8816L30.0874 19.3875V27.8056H27.6793V16.4077H31.1248L35.2379 25.621L39.3677 16.4077ZM52.7301 16.2122H51.4546C47.6438 16.2122 45.1249 18.0898 45.1249 21.7013V22.5109C45.1249 26.1213 47.6438 28 51.4546 28H52.7301C56.541 28 59.0598 26.1213 59.0598 22.5109V21.7013C59.0598 18.0909 56.541 16.2122 52.7301 16.2122ZM56.5742 22.4954C56.5742 24.5519 55.188 25.7657 52.7323 25.7657H51.4568C49.0023 25.7657 47.615 24.5519 47.615 22.4954V21.7179C47.615 19.6614 49.0011 18.4476 51.4568 18.4476H52.7323C55.1869 18.4476 56.5742 19.6614 56.5742 21.7179V22.4954ZM63.3523 21.7168V22.4943C63.3523 24.5508 64.7396 25.7646 67.1942 25.7646H67.7511C69.7606 25.7646 71.005 25.0854 71.3383 23.7081H73.9534C73.5394 26.5896 71.211 27.9989 67.75 27.9989L67.1931 28C63.3822 28 60.8634 26.1213 60.8634 22.5109V21.7013C60.8634 18.0909 63.3822 16.2122 67.1931 16.2122H67.75C71.211 16.2122 73.5394 17.6215 73.9534 20.503H71.3383C71.0028 19.1269 69.7595 18.4465 67.7511 18.4465H67.1942C64.7385 18.4465 63.3523 19.6603 63.3523 21.7168ZM82.5683 21.8802L88.1496 27.8067H84.817L80.385 23.0962H78.5515V27.8067H76.1091V16.4088H78.5493V20.8443H80.3673L84.7849 16.4088H88.0533L82.5683 21.8814V21.8802ZM99.3087 21.8482C100.377 21.508 101.079 20.7151 101.079 19.3544C101.079 17.5574 99.9 16.4077 97.0778 16.4077H89.7893V27.8056H97.2682C100.058 27.8056 101.493 26.6393 101.493 24.5674C101.493 22.9648 100.472 22.1232 99.3087 21.8482ZM92.2295 18.6265H96.966C98.082 18.6265 98.609 18.9822 98.609 19.7597C98.609 20.4555 98.1473 20.9415 97.0302 20.9415H92.2295V18.6265ZM97.2372 25.5879H92.2306V23.0786H97.2372C98.3865 23.0786 99.0076 23.4519 99.0076 24.3255C99.0076 25.1991 98.3843 25.5879 97.2372 25.5879ZM118 16.4077V27.8056H115.543V16.4077H118ZM110.218 20.2611H106.152V16.4077H103.714V27.8056H110.203C113.407 27.8056 114.588 26.2351 114.588 24.0328C114.588 21.8305 113.391 20.26 110.218 20.26V20.2611ZM110.218 25.5879H106.152V22.48H110.218C111.604 22.48 112.099 23.0962 112.099 24.0339C112.099 24.9716 111.606 25.5879 110.218 25.5879ZM8.85736 5.71663V9.5822L15.2125 9.59325L4.42868 20.3506L7.19661 23.1117L18.2683 12.0672V17.8656H22.1434V22.2834C22.1434 25.8176 20.1505 27.8056 16.6076 27.8056H0V0.194383H22.1434V5.71663H8.85736Z" fill="white"/>
</svg>
