<svg width="24" height="24" viewBox="0 0 24 24" fill="none" xmlns="http://www.w3.org/2000/svg">
<path d="M12.0789 3.75001C13.3892 3.74748 14.6791 4.08107 15.8236 4.71888C15.8951 4.75874 15.966 4.79971 16.036 4.84176C17.0869 5.47231 17.9719 6.34665 18.6159 7.39201L19.8921 6.60656C19.071 5.27344 17.922 4.173 16.5547 3.41031C15.1868 2.64735 13.6452 2.24786 12.0789 2.25001C7.07696 2.25001 3.00221 6.2389 2.92992 11.1989L1.52795 9.80001L0.471947 10.865L3.15195 13.532C3.29241 13.6712 3.48217 13.7494 3.67995 13.7494C3.87772 13.7494 4.06749 13.6712 4.20795 13.532L6.88795 10.866L5.82995 9.80001L4.43016 11.1967C4.50351 7.07736 7.895 3.75001 12.0789 3.75001Z" fill="#777E8C"/>
<path opacity="0.5" d="M11.892 20.1993C10.5818 20.2018 9.29183 19.8682 8.14734 19.2304C8.07581 19.1905 8.00499 19.1496 7.93491 19.1075C6.88409 18.477 5.99909 17.6026 5.355 16.5573L4.07889 17.3427C4.89991 18.6758 6.04893 19.7763 7.41628 20.539C8.78413 21.3019 10.3258 21.7014 11.892 21.6993C16.894 21.6993 20.9687 17.7104 21.041 12.7504L22.443 14.1493L23.499 13.0843L20.819 10.4173C20.6785 10.278 20.4888 10.1999 20.291 10.1999C20.0932 10.1999 19.9035 10.278 19.763 10.4173L17.083 13.0833L18.141 14.1493L19.5408 12.7526C19.4674 16.8719 16.0759 20.1993 11.892 20.1993Z" fill="#777E8C"/>
</svg>
