<svg width="24" height="24" viewBox="0 0 24 24" fill="none" xmlns="http://www.w3.org/2000/svg">
<path d="M2.25 5.03288C2.25008 2.12693 5.4165 0.346814 7.95508 1.72624L20.7676 8.69401H20.7666C21.3646 9.0133 21.8647 9.48885 22.2139 10.07C22.564 10.6528 22.749 11.3197 22.749 11.9997C22.749 12.6797 22.5641 13.3474 22.2139 13.9303C21.8648 14.5113 21.3644 14.9861 20.7666 15.3053L7.95508 22.2721L7.95605 22.2731C5.4171 23.6552 2.25032 21.8729 2.25 18.9684V5.03288ZM3.75 18.9684C3.75033 20.6814 5.6515 21.8185 7.23828 20.9548L20.0508 13.988L20.0566 13.985C20.4168 13.7935 20.7186 13.5075 20.9287 13.1579C21.1388 12.8082 21.249 12.4075 21.249 11.9997C21.249 11.592 21.1386 11.1919 20.9287 10.8424C20.7186 10.4928 20.4168 10.2068 20.0566 10.0153L20.0508 10.0114L7.23828 3.04362C5.65105 2.18173 3.75008 3.31918 3.75 5.03288V18.9684Z" fill="#777E8C"/>
</svg>
