<svg width="24" height="24" viewBox="0 0 24 24" fill="none" xmlns="http://www.w3.org/2000/svg">
<path d="M19.5811 8.5498L19.1211 15.4502C19.034 16.7566 18.9658 17.81 18.8018 18.6338C18.6335 19.4787 18.3465 20.184 17.7549 20.7373C17.1634 21.2904 16.4406 21.5296 15.5859 21.6416C14.7527 21.7508 13.6969 21.75 12.3867 21.75H11.6133C10.3038 21.75 9.24824 21.7517 8.41504 21.6426C7.56029 21.5307 6.83705 21.291 6.24512 20.7373C5.65352 20.184 5.36652 19.4787 5.19824 18.6338C5.03421 17.81 4.96603 16.7566 4.87891 15.4502L4.41895 8.5498L5.91504 8.4502L6.375 15.3496C6.46487 16.6971 6.52947 17.6354 6.66992 18.3408C6.80615 19.0247 6.99628 19.387 7.26953 19.6426C7.54354 19.8987 7.918 20.0647 8.60938 20.1553C9.32264 20.2487 10.2628 20.25 11.6133 20.25H12.3867C13.7373 20.25 14.6774 20.2478 15.3906 20.1543C16.0822 20.0636 16.4569 19.8983 16.7305 19.6426C17.0037 19.387 17.1939 19.0247 17.3301 18.3408C17.4705 17.6354 17.5351 16.6971 17.625 15.3496L18.085 8.4502L19.5811 8.5498ZM20.5 5.25V6.75H3.5V5.25H20.5Z" fill="#777E8C"/>
<path opacity="0.5" d="M13.6445 2.24994C13.8797 2.24994 14.0842 2.24721 14.2754 2.27826L14.2744 2.27924C14.6206 2.33466 14.9489 2.46986 15.2334 2.67474C15.5183 2.87992 15.7518 3.14862 15.9141 3.4599L15.915 3.46185C16.0033 3.63206 16.0649 3.82145 16.1406 4.04877L16.2373 4.33978L16.2412 4.35053L16.2441 4.36127C16.3233 4.62431 16.4872 4.85388 16.71 5.01459C16.9329 5.17529 17.2028 5.25793 17.4775 5.24994L17.5225 6.74994C16.9178 6.76772 16.3237 6.58511 15.833 6.23138C15.3482 5.88186 14.991 5.38401 14.8145 4.81342L14.7178 4.52338C14.6276 4.25287 14.6046 4.19398 14.583 4.15228V4.15131C14.529 4.04845 14.4517 3.95947 14.3574 3.89154C14.2625 3.82317 14.1526 3.77816 14.0371 3.7597H14.0352C13.9924 3.75276 13.9333 3.74994 13.6445 3.74994H10.3555C10.0667 3.74994 10.0076 3.75276 9.96484 3.7597H9.96289C9.84737 3.77816 9.7375 3.82317 9.64258 3.89154C9.54818 3.95956 9.47006 4.04828 9.41602 4.15131L9.41699 4.15228C9.39536 4.19398 9.37239 4.25287 9.28223 4.52338L9.18555 4.81146L9.15234 4.91498L9.14941 4.92474L9.14551 4.93451C8.95748 5.45514 8.61691 5.90756 8.16797 6.23138C7.71903 6.5552 7.18226 6.7358 6.62891 6.74994H6.5V5.24994H6.59082C6.84227 5.24351 7.08601 5.1617 7.29004 5.01459C7.4941 4.86739 7.64891 4.6614 7.73438 4.42474L7.76172 4.34174L7.7627 4.33978L7.85938 4.04877C7.93515 3.82145 7.9967 3.63206 8.08496 3.46185L8.08594 3.4599C8.24824 3.14862 8.48175 2.87992 8.7666 2.67474C9.05085 2.47005 9.37878 2.33476 9.72461 2.27924C9.91583 2.24818 10.1203 2.24994 10.3555 2.24994H13.6445Z" fill="#777E8C"/>
</svg>
