<svg width="24" height="24" viewBox="0 0 24 24" fill="none" xmlns="http://www.w3.org/2000/svg">
<path opacity="0.5" d="M3.75 14C3.75 15.435 3.75197 16.4361 3.85352 17.1914C3.95221 17.9253 4.13254 18.3145 4.40918 18.5908L4.51856 18.6904C4.78805 18.9117 5.16633 19.0601 5.8086 19.1465C6.56395 19.248 7.565 19.25 9 19.25H15C16.435 19.25 17.4361 19.248 18.1914 19.1465C18.9253 19.0478 19.3145 18.8675 19.5908 18.5908L19.6904 18.4814C19.9117 18.2119 20.0601 17.8337 20.1465 17.1914C20.248 16.4361 20.25 15.435 20.25 14H21.75C21.75 15.3927 21.7519 16.513 21.6338 17.3916C21.5203 18.2356 21.2851 18.9547 20.7598 19.5371L20.6514 19.6514C20.0497 20.2535 19.2916 20.5128 18.3916 20.6338C17.513 20.7519 16.3927 20.75 15 20.75H9C7.60729 20.75 6.48698 20.7519 5.6084 20.6338C4.76445 20.5203 4.04527 20.2851 3.46289 19.7598L3.34863 19.6514C2.74649 19.0497 2.48725 18.2916 2.36621 17.3916C2.24807 16.513 2.25 15.3927 2.25 14H3.75Z" fill="#777E8C"/>
<path d="M12 2.25C12.2106 2.25 12.4116 2.33874 12.5537 2.49414L16.5537 6.86914L15.4463 7.88086L12.75 4.93164V16H11.25V4.93164L8.55371 7.88086L7.44629 6.86914L11.4463 2.49414C11.5884 2.33874 11.7894 2.25 12 2.25Z" fill="#777E8C"/>
</svg>
