<svg width="24" height="24" viewBox="0 0 24 24" fill="none" xmlns="http://www.w3.org/2000/svg">
<path d="M11.9997 1.25C12.8328 1.25 13.4225 1.77317 13.8991 2.39551C14.3754 3.01739 14.8804 3.92894 15.5017 5.04297L15.8298 5.63086L16.0749 6.06348C16.2745 6.407 16.3547 6.50933 16.4489 6.58105C16.569 6.67242 16.725 6.72382 17.4899 6.89648L18.1267 7.04004C19.3311 7.31276 20.3218 7.53538 21.0397 7.81836C21.7261 8.08893 22.3317 8.47955 22.6081 9.18066L22.6589 9.3252C22.9026 10.1098 22.6287 10.8324 22.2048 11.5059C21.7859 12.1713 21.1121 12.9553 20.2897 13.917L19.8561 14.4248L19.8552 14.4238C19.3382 15.0288 19.2309 15.1773 19.1804 15.3398C19.1287 15.5068 19.1337 15.7002 19.2116 16.5039L19.277 17.1816C19.4012 18.4659 19.5047 19.5111 19.4694 20.3037C19.4341 21.0975 19.2538 21.8602 18.5983 22.3574C17.9308 22.8637 17.1536 22.8066 16.404 22.5918C15.6639 22.3797 14.738 21.9515 13.611 21.4326L13.0153 21.1582H13.0134C12.298 20.8278 12.1437 20.7754 11.9997 20.7754C11.8558 20.7754 11.7011 20.828 10.986 21.1582L10.3894 21.4326C9.26181 21.9516 8.33535 22.3797 7.59541 22.5918C6.84635 22.8065 6.07016 22.8642 5.40302 22.3584C4.7473 21.8608 4.56647 21.098 4.53095 20.3037C4.49556 19.5109 4.59822 18.4657 4.72236 17.1816L4.78877 16.5049C4.8668 15.6985 4.87072 15.5074 4.81904 15.3428L4.81806 15.3379C4.76839 15.1765 4.66097 15.0294 4.14423 14.4258L4.14326 14.4248L3.70966 13.917C2.88734 12.9559 2.21458 12.1724 1.7956 11.5068C1.37164 10.8333 1.09722 10.1108 1.34052 9.32617C1.5868 8.53253 2.2283 8.10602 2.96064 7.81738C3.679 7.53431 4.67026 7.31226 5.8747 7.04004L6.51044 6.89648L6.97822 6.78711C7.34947 6.69566 7.46015 6.64925 7.55146 6.58008C7.67712 6.48483 7.77627 6.33672 8.16962 5.63086L8.49775 5.04297C9.11899 3.92894 9.625 3.01739 10.1013 2.39551C10.5778 1.77333 11.1669 1.2501 11.9997 1.25ZM11.9997 2.75C11.8858 2.75006 11.6847 2.79454 11.2917 3.30762C10.898 3.82173 10.454 4.61547 9.8083 5.77344L9.48017 6.36133C9.15358 6.94738 8.89402 7.44467 8.45771 7.77539C8.12748 8.0257 7.74048 8.14868 7.29951 8.25488L6.20576 8.50391C4.95039 8.78764 4.09555 8.98326 3.51044 9.21387C2.93943 9.43895 2.81886 9.62316 2.77314 9.77051C2.72476 9.92667 2.72414 10.1653 3.06513 10.707C3.32486 11.1197 3.7184 11.6089 4.25947 12.249L5.28291 13.4502C5.71665 13.9568 6.08764 14.3671 6.25068 14.8936L6.30146 15.0908C6.39782 15.5566 6.33959 16.0545 6.28193 16.6504L6.21552 17.3271C6.08674 18.6593 5.99946 19.5766 6.029 20.2373C6.05848 20.8961 6.19804 21.0786 6.30927 21.1631L6.35029 21.1914C6.45872 21.2545 6.66317 21.2992 7.18232 21.1504C7.78532 20.9775 8.58706 20.6103 9.7624 20.0693L10.3571 19.7959C10.9496 19.5223 11.4498 19.2755 11.9997 19.2754C12.5491 19.2754 13.0487 19.5217 13.6403 19.7949L14.238 20.0693C15.4124 20.6101 16.2143 20.9767 16.8171 21.1494C17.4104 21.3194 17.5936 21.2368 17.6921 21.1621C17.8024 21.0782 17.941 20.896 17.9704 20.2373C17.9998 19.5766 17.9136 18.6593 17.7849 17.3271L17.7185 16.6494C17.6525 15.9687 17.5856 15.4174 17.7477 14.8945L17.8181 14.7021C18.0043 14.2646 18.3359 13.8945 18.7165 13.4492L19.1501 12.9424L19.7409 12.249C20.2818 11.6088 20.6755 11.1196 20.9352 10.707C21.2766 10.1647 21.2745 9.9259 21.2263 9.77051C21.1798 9.62276 21.0583 9.43795 20.4899 9.21387C19.9052 8.98336 19.0509 8.78814 17.7956 8.50391L17.1589 8.35938C16.5244 8.21618 15.9804 8.10978 15.5407 7.77539C15.215 7.52763 14.988 7.18607 14.7565 6.7832L14.5202 6.36133L14.1921 5.77344C13.5463 4.61546 13.1014 3.82174 12.7077 3.30762C12.3146 2.79441 12.1135 2.75 11.9997 2.75Z" fill="#777E8C"/>
</svg>
