<svg width="24" height="24" viewBox="0 0 24 24" fill="none" xmlns="http://www.w3.org/2000/svg">
<path d="M21.2499 5.93286C21.2499 5.08888 20.9141 4.27867 20.3173 3.68188C19.7206 3.08533 18.9111 2.75024 18.0673 2.75024C17.2235 2.75028 16.4141 3.08527 15.8173 3.68188L6.36908 13.1282C5.77924 13.719 5.52959 13.9719 5.31634 14.2454C5.0571 14.5781 4.83416 14.938 4.65228 15.3186C4.50392 15.6311 4.39104 15.9685 4.12787 16.7581L2.76556 20.842C2.74724 20.8967 2.74359 20.9558 2.75677 21.012C2.76997 21.0681 2.79901 21.1196 2.83978 21.1604C2.88054 21.2011 2.93215 21.2292 2.98822 21.2424C3.04423 21.2556 3.1026 21.2529 3.15716 21.2346L3.9599 20.967L3.96088 20.9661L7.24213 19.8723C8.03313 19.609 8.36963 19.4956 8.68256 19.3469C9.06438 19.1652 9.42112 18.944 9.75384 18.6838C10.0271 18.4708 10.2805 18.2206 10.8701 17.6311L20.3173 8.18286C20.914 7.58617 21.2498 6.7767 21.2499 5.93286ZM22.7499 5.93286C22.7498 7.17452 22.2559 8.36542 21.3779 9.24341L11.9306 18.6917C11.3663 19.256 11.0403 19.5836 10.6777 19.8665L10.6767 19.8655C10.3625 20.1111 10.0314 20.3297 9.68256 20.5198L9.32709 20.7014C8.91218 20.8986 8.47425 21.0427 7.71576 21.2952L4.43548 22.3899L3.63373 22.6565C3.31463 22.7634 2.97207 22.7804 2.64447 22.7034C2.31682 22.6263 2.01726 22.4589 1.77923 22.2209C1.54126 21.983 1.37392 21.6833 1.29681 21.3557C1.21975 21.028 1.23567 20.6847 1.34271 20.3655L2.70404 16.2834C2.95628 15.5267 3.10158 15.088 3.29877 14.6731L3.29974 14.6711C3.52829 14.193 3.80799 13.7405 4.13373 13.3225C4.41643 12.96 4.74453 12.6346 5.30853 12.0696L14.7568 2.62134C15.6348 1.74342 16.8257 1.25028 18.0673 1.25024C19.309 1.25024 20.4998 1.74348 21.3779 2.62134C22.256 3.49942 22.7499 4.69106 22.7499 5.93286Z" fill="#777E8C"/>
<path opacity="0.5" d="M4.72827 21.1473L3.66772 22.2078L1.79175 20.3318L2.85229 19.2713L4.72827 21.1473ZM15.1082 4.034L15.1091 4.03595C15.1098 4.04392 15.1106 4.05959 15.113 4.08087C15.1179 4.12344 15.1274 4.19119 15.1433 4.28009C15.1754 4.45881 15.235 4.72113 15.3435 5.034C15.5607 5.66002 15.971 6.48272 16.7439 7.25568C17.5167 8.02848 18.3389 8.43809 18.9646 8.65509C19.2775 8.76357 19.5398 8.82327 19.7185 8.85529C19.8074 8.87121 19.8751 8.88069 19.9177 8.88556C19.939 8.88799 19.9547 8.88879 19.9626 8.88947L19.9685 8.89044H19.9656C19.9652 8.89273 19.9619 8.93294 19.9207 9.63849C19.8793 10.3468 19.8771 10.3855 19.8767 10.3875H19.8708C19.8684 10.3873 19.8654 10.3868 19.8621 10.3865C19.8549 10.386 19.8456 10.3855 19.8347 10.3846C19.813 10.3827 19.7838 10.3799 19.7478 10.3758C19.6759 10.3676 19.5764 10.3538 19.4539 10.3318C19.209 10.288 18.8699 10.2105 18.4734 10.0731C17.6801 9.79801 16.6483 9.28119 15.6833 8.31622C14.7185 7.35132 14.2018 6.31955 13.9265 5.52618C13.7889 5.1296 13.7107 4.79059 13.6667 4.54572C13.6448 4.42328 13.6311 4.32367 13.6228 4.25177C13.6187 4.21592 13.6159 4.18657 13.614 4.16486C13.6131 4.15399 13.6126 4.14463 13.6121 4.13751C13.6118 4.13417 13.6122 4.13121 13.6121 4.12872C13.612 4.12743 13.6111 4.12587 13.6111 4.12482V4.12286L15.1082 4.034Z" fill="#777E8C"/>
</svg>
