<svg width="24" height="24" viewBox="0 0 24 24" fill="none" xmlns="http://www.w3.org/2000/svg">
<path d="M3.85944 3.86185C4.56534 3.15595 5.53123 3.16737 6.50299 3.37356C7.48911 3.58285 8.77373 4.0577 10.3799 4.64993L15.8292 6.65579C16.6222 6.94814 17.2982 7.19618 17.7852 7.46243C18.2835 7.73487 18.756 8.11751 18.8985 8.76321C19.0411 9.40993 18.7723 9.95642 18.4337 10.4126C18.1855 10.7469 17.8364 11.116 17.4249 11.5318L15.793 13.1665C15.5003 13.4595 15.0255 13.4591 14.7325 13.1665C14.4395 12.8738 14.4388 12.399 14.7315 12.106L15.9337 10.9029L16.7266 10.0992C16.9401 9.87436 17.1052 9.68652 17.2296 9.51907C17.4704 9.19453 17.437 9.10174 17.4337 9.08645C17.4301 9.07001 17.4196 8.97147 17.0655 8.77786C16.6992 8.5777 16.1502 8.3735 15.3106 8.06399L9.86139 6.05813C8.20765 5.44838 7.04534 5.02255 6.19147 4.84134C5.32363 4.65721 5.05398 4.78839 4.91998 4.92239C4.78631 5.05625 4.65538 5.32548 4.8399 6.1929C5.02152 7.04662 5.44736 8.20737 6.0567 9.86087L8.06354 15.3111C8.37307 16.1507 8.57818 16.6996 8.77838 17.0659C8.97253 17.4212 9.07081 17.4298 9.086 17.4331C9.10295 17.437 9.19714 17.4682 9.51959 17.229C9.85454 16.9806 10.2701 16.5675 10.9024 15.9341L12.1065 14.731C12.3996 14.4387 12.8744 14.4391 13.1671 14.732C13.4596 15.025 13.459 15.4998 13.1661 15.7925L11.963 16.9947C11.3657 17.5929 10.859 18.1035 10.4131 18.4341C9.95671 18.7726 9.4106 19.0404 8.76471 18.899C8.1179 18.7573 7.73433 18.284 7.46197 17.7857C7.19577 17.2986 6.94861 16.6225 6.65631 15.8296L4.64947 10.3794C4.05794 8.77425 3.58281 7.49085 3.37311 6.5054C3.16652 5.53425 3.15347 4.56806 3.85944 3.86185Z" fill="#777E8C"/>
<path opacity="0.5" d="M14.7319 12.1058C15.0248 11.8129 15.4995 11.8129 15.7924 12.1058L19.7309 16.0433C19.9278 16.2402 20.1013 16.4143 20.2358 16.5687C20.3747 16.7283 20.5068 16.9064 20.5981 17.1253L20.5991 17.1282C20.7996 17.6143 20.7996 18.1597 20.5991 18.6458L20.5981 18.6487C20.5068 18.8677 20.3747 19.0458 20.2358 19.2054C20.1013 19.3598 19.9278 19.5338 19.7309 19.7308C19.5341 19.9275 19.3596 20.1012 19.2055 20.2357C19.0862 20.3397 18.9566 20.4413 18.8061 20.5237L18.6479 20.5989C18.1611 20.8006 17.6154 20.8008 17.1284 20.5989V20.5999C16.9074 20.5088 16.7283 20.3756 16.5688 20.2366C16.4144 20.1021 16.2401 19.9275 16.0434 19.7308L12.1059 15.7923C11.813 15.4994 11.813 15.0246 12.1059 14.7317C12.3988 14.4389 12.8736 14.4389 13.1664 14.7317L17.1049 18.6692C17.3162 18.8805 17.4475 19.0128 17.5541 19.1058C17.6534 19.1923 17.6916 19.2088 17.6996 19.2122L17.7026 19.2132C17.8208 19.2623 17.9534 19.263 18.0737 19.2132H18.0746C18.0821 19.2101 18.12 19.1931 18.2202 19.1058C18.3268 19.0127 18.4582 18.8804 18.6694 18.6692C18.8803 18.4583 19.0122 18.3266 19.1049 18.22C19.1931 18.1187 19.2106 18.0805 19.2143 18.0716C19.2623 17.9533 19.2623 17.8207 19.2143 17.7025L19.1909 17.6634C19.1751 17.6401 19.1492 17.6048 19.1049 17.554C19.0122 17.4475 18.8803 17.3157 18.6694 17.1048L14.7319 13.1663C14.439 12.8734 14.439 12.3987 14.7319 12.1058Z" fill="#777E8C"/>
</svg>
