<svg width="91" height="44" viewBox="0 0 91 44" fill="none" xmlns="http://www.w3.org/2000/svg">
<g clip-path="url(#clip0_2178_17)">
<path d="M11.8088 16.402C11.8088 18.5664 10.4942 19.9617 7.83231 19.9617H0.311184V8.67252H10.9425V10.8698H2.76477V12.9217H7.83231C10.5258 12.9217 11.8088 14.0923 11.8088 16.402ZM7.49511 17.7645C8.87405 17.7645 9.32365 17.2998 9.32365 16.402C9.32365 15.5042 8.87405 15.0395 7.49511 15.0395H2.76477V17.7659H7.49511V17.7645Z" fill="white"/>
<path d="M25.9052 19.9617H23.4352V11.9115L16.4431 19.9617H14.0211V8.67252H16.4747V16.7543L23.4818 8.67252H25.9038V19.9617H25.9052Z" fill="white"/>
<path d="M34.0994 8.48061C37.9004 8.48061 39.5671 9.74715 39.5671 11.6881C39.5671 12.9231 38.7488 13.7565 37.6111 14.0293C38.7653 14.2376 39.9838 15.071 39.9838 16.6597C39.9838 18.824 37.899 20.155 34.2104 20.155C30.2984 20.155 28.1655 18.5348 28.0051 16.3225H30.4423C30.6027 17.1559 31.6773 17.9262 34.2104 17.9262C36.5831 17.9262 37.4823 17.3971 37.4823 16.4349C37.4823 15.6166 36.6969 15.2643 35.6222 15.2643H31.8856V13.163H35.3974C36.5036 13.163 37.0656 12.7298 37.0656 12.0088C37.0656 11.207 36.3597 10.7094 34.0514 10.7094C31.7431 10.7094 30.7 11.3824 30.5396 12.2007H28.1175C28.2779 10.0364 30.4423 8.48061 34.0994 8.48061Z" fill="white"/>
<path d="M42.214 19.9617V8.67252H44.6676V13.0657H51.6267V8.67252H54.0967V19.9617H51.6267V15.2958H44.6676V19.9617H42.214Z" fill="white"/>
<path d="M56.9355 8.67252H67.7121V10.8698H59.3891V13.163H67.4064V15.2794H59.3891V17.7645H67.7121V19.9617H56.9355V8.67252Z" fill="white"/>
<path d="M76.5792 20.155H76.0186C72.1861 20.155 69.653 18.2949 69.653 14.7187V13.9169C69.653 10.3407 72.1861 8.48061 76.0186 8.48061H76.5792C80.0595 8.48061 82.4007 9.876 82.8174 12.7298H80.187C79.8498 11.3673 78.5997 10.6929 76.5792 10.6929H76.0186C73.5486 10.6929 72.1546 11.8951 72.1546 13.9319V14.7023C72.1546 16.7392 73.55 17.9413 76.0186 17.9413H76.5792C78.5997 17.9413 79.8511 17.2683 80.187 15.9044H82.8174C82.4007 18.7582 80.0595 20.1536 76.5792 20.1536V20.155Z" fill="white"/>
<path d="M3.77499 24.7305L7.91181 33.8553L12.0651 24.7305H15.5289V36.0197H13.1068V27.6323L9.2743 36.0197H6.54795L2.73187 27.6816V36.0197H0.309814V24.7305H3.77499Z" fill="white"/>
<path d="M17.855 30.7753V29.9734C17.855 26.3972 20.3881 24.5372 24.2206 24.5372H25.5036C29.3361 24.5372 31.8692 26.3972 31.8692 29.9734V30.7753C31.8692 34.3515 29.3361 36.2116 25.5036 36.2116H24.2206C20.3881 36.2116 17.855 34.3515 17.855 30.7753ZM29.369 30.7602V29.9899C29.369 27.953 27.9736 26.7509 25.505 26.7509H24.222C21.7519 26.7509 20.3579 27.953 20.3579 29.9899V30.7602C20.3579 32.7971 21.7533 33.9992 24.222 33.9992H25.505C27.975 33.9992 29.369 32.7971 29.369 30.7602Z" fill="white"/>
<path d="M40.6103 36.2116H40.0496C36.2171 36.2116 33.684 34.3515 33.684 30.7753V29.9734C33.684 26.3972 36.2171 24.5372 40.0496 24.5372H40.6103C44.0905 24.5372 46.4317 25.9326 46.8484 28.7864H44.218C43.8808 27.4239 42.6307 26.7495 40.6103 26.7495H40.0496C37.5796 26.7495 36.1856 27.9516 36.1856 29.9885V30.7589C36.1856 32.7957 37.581 33.9979 40.0496 33.9979H40.6103C42.6307 33.9979 43.8822 33.3249 44.218 31.961H46.8484C46.4317 34.8148 44.0905 36.2102 40.6103 36.2102V36.2116Z" fill="white"/>
<path d="M49.0141 36.0197V24.7305H51.4677V29.1236H53.2962L57.7387 24.7305H61.0257L55.5099 30.1503L61.123 36.0197H57.7716L53.3141 31.3538H51.4704V36.0197H49.0141Z" fill="white"/>
<path d="M70.1012 24.7305C72.94 24.7305 74.1256 25.8695 74.1256 27.6487C74.1256 28.9961 73.4197 29.7815 72.3451 30.1187C73.5157 30.3915 74.5423 31.2249 74.5423 32.8122C74.5423 34.8642 73.099 36.0197 70.2931 36.0197H62.772V24.7305H70.1012ZM70.0532 29.2209C71.1759 29.2209 71.6405 28.7398 71.6405 28.0503C71.6405 27.28 71.1114 26.9277 69.9888 26.9277H65.2256V29.2209H70.0532ZM70.2616 33.8224C71.4157 33.8224 72.0421 33.4372 72.0421 32.5723C72.0421 31.7074 71.4171 31.3373 70.2616 31.3373H65.2269V33.8224H70.2616Z" fill="white"/>
<path d="M76.7725 24.7305H79.2261V28.5465H83.3149C86.506 28.5465 87.7094 30.1023 87.7094 32.2831C87.7094 34.4639 86.5224 36.0197 83.2999 36.0197H76.7739V24.7305H76.7725ZM83.3149 33.8224C84.7103 33.8224 85.2065 33.2125 85.2065 32.2831C85.2065 31.3538 84.7089 30.7438 83.3149 30.7438H79.2261V33.8224H83.3149ZM88.6717 24.7305H91.1417V36.0197H88.6717V24.7305Z" fill="white"/>
</g>
<defs>
<clipPath id="clip0_2178_17">
<rect width="91" height="44" fill="white"/>
</clipPath>
</defs>
</svg>
