<svg width="912" height="216" viewBox="0 0 912 216" fill="none" xmlns="http://www.w3.org/2000/svg">
<g clip-path="url(#clip0_2_40)">
<path d="M911.738 215.7V0L0 85.7748V215.752H911.738V215.7Z" fill="#A9ADB7"/>
<path d="M598.632 52.3076C607.104 52.3076 610.104 38.5205 610.104 31.3638C610.104 24.2071 607.051 21.2603 603.263 21.2603C594.685 21.2603 591.791 35.0473 591.791 41.9935C591.791 48.9397 594.843 52.3602 598.632 52.3602V52.3076ZM621.996 48.5188C630.574 48.5188 633.468 34.7316 633.468 27.575C633.468 20.4183 630.416 17.3662 626.627 17.3662C618.155 17.3662 615.261 31.2586 615.261 38.2047C615.261 45.1509 618.155 48.5713 621.944 48.5713L621.996 48.5188ZM834.17 160.763V115.56C835.802 115.192 837.223 114.928 838.696 114.928C847.905 114.928 853.956 120.98 853.956 133.978C853.956 148.765 843.221 160.394 834.118 160.763H834.17ZM509.858 167.077C524.645 158.342 525.75 117.717 525.381 88.0383L541.431 86.7753V166.709L509.858 167.077ZM22.8359 195.494L40.8855 195.388V166.078C61.724 164.446 69.67 145.607 69.67 130.189C69.67 108.719 57.409 102.667 41.2538 103.93L22.8359 105.456V195.494ZM834.17 39.1519L802.965 41.6778V187.811L829.224 187.548C864.481 187.179 884.688 159.763 884.688 131.347C884.688 102.93 870.427 87.6699 844.642 87.6699C841.222 87.6699 837.801 88.0383 834.17 88.8276V39.2045V39.1519ZM501.122 66.3052C501.122 98.2471 506.7 166.814 482.073 167.604V191.073L577.162 190.179V166.078L567.795 166.183V60.8324L501.122 66.2525V66.3052ZM333.519 80.0923V111.929C333.519 160.552 324.679 170.393 316.838 170.393C315.838 170.393 314.681 170.287 313.576 169.866V193.126C315.996 193.862 319.364 194.283 321.785 194.283C343.149 194.283 355.253 173.55 355.253 110.561V100.457L370.408 99.2995V192.231L396.298 191.968V74.8826L333.519 80.0396V80.0923ZM437.607 193.599C472.601 193.599 487.598 149.028 487.598 114.928C487.598 86.8806 476.232 68.7258 454.499 68.7258C419.505 68.7258 404.507 113.297 404.507 147.397C404.507 175.444 415.874 193.599 437.607 193.599ZM442.764 169.235C436.818 169.235 431.397 159.394 431.397 139.556C431.397 122.243 436.344 93.1953 449.342 93.1953C455.288 93.1953 460.708 102.667 460.708 122.769C460.708 140.082 455.762 169.235 442.764 169.235ZM161.654 132.873L179.599 129.61C179.599 105.246 170.021 93.0901 157.865 93.0901C133.606 93.0901 127.186 130.978 127.186 156.342C127.186 181.706 134.396 196.23 149.288 196.23C164.18 196.23 177.441 182.338 180.23 150.238L162.286 152.133C160.654 169.551 156.971 173.866 153.971 173.866C149.919 173.866 146.288 166.656 146.288 147.344C146.288 135.346 149.077 115.244 155.655 115.244C158.549 115.244 162.075 118.77 161.707 132.82L161.654 132.873ZM279.371 194.652C310.05 194.652 320.153 149.817 320.153 123.032C320.153 96.2474 310.681 82.2498 293.526 82.2498C262.847 82.2498 252.849 126.453 252.849 153.869C252.849 179.759 262.216 194.652 279.371 194.652ZM284.054 171.287C279.266 171.287 275.108 163.183 275.108 147.66C275.108 133.662 277.634 105.614 289.001 105.614C293.684 105.614 297.947 113.718 297.947 129.242C297.947 142.608 295.316 171.287 284.054 171.287ZM40.9381 150.817V120.769C46.6213 119.77 50.7785 123.19 50.7785 133.136C50.7785 140.713 47.6212 150.817 40.9381 150.817ZM91.9293 196.756C116.82 196.756 123.871 159.394 123.871 134.978C123.871 110.561 116.03 97.6156 102.033 97.6156C77.1424 97.6156 70.1962 134.978 70.1962 159.394C70.1962 183.811 77.8791 196.756 91.9293 196.756ZM704.193 49.7817V112.403H704.087L678.723 51.7813L648.044 54.3072L677.829 116.718L646.624 189.442L678.829 189.074L704.193 120.506V188.81L734.398 188.547V119.98L764.814 188.179L799.282 187.916L761.92 111.245L795.914 42.1514L762.814 44.7826L734.398 108.824V47.2032L704.193 49.729V49.7817ZM583.371 59.6221V190.073L643.466 189.442V165.078L610.998 165.604V134.293L640.782 133.557V108.824L610.998 110.087V81.7762L642.572 79.5134V54.7808L583.319 59.7273L583.371 59.6221ZM185.124 92.1954V193.967L201.91 193.862V134.767L210.751 165.604L219.486 164.972L227.696 132.662V193.652L246.903 193.389V87.1963L226.801 88.8276L216.066 132.136L204.068 90.722L185.124 92.2481V92.1954ZM95.3498 176.339C90.6664 176.339 88.0353 168.025 88.0353 155.395C88.0353 142.029 90.9295 118.138 98.665 118.138C103.348 118.138 105.98 126.453 105.98 139.082C105.98 152.448 102.927 176.339 95.3498 176.339Z" fill="white"/>
</g>
<defs>
<clipPath id="clip0_2_40">
<rect width="912" height="216" fill="white"/>
</clipPath>
</defs>
</svg>
