<svg width="420" height="314" viewBox="0 0 420 314" fill="none" xmlns="http://www.w3.org/2000/svg">
<path d="M419.57 181.473V0L39.7602 155.173V225.101L0 233.146L0.309418 313.904H235.622V212.26L419.57 181.473Z" fill="#00FFAA"/>
<path d="M114.918 226.108L100.375 228.274L116.465 262.465L128.223 258.906L114.918 226.108ZM87.0702 227.5C89.2361 227.5 91.7114 224.87 92.6397 219.455C93.4132 214.195 91.402 211.411 89.0814 211.411C86.9155 211.411 84.2854 214.195 83.5119 219.455C82.7383 224.87 84.4401 227.5 87.0702 227.5ZM74.5387 229.821C77.0141 229.821 79.6441 227.036 80.263 221.621C81.0365 216.052 79.18 213.422 76.8594 213.422C74.384 213.422 71.754 216.052 71.1352 221.621C70.2069 227.036 72.0634 229.821 74.5387 229.821ZM23.949 239.877C23.949 265.249 26.4243 287.063 14.5117 287.063L25.1866 287.837C37.2539 287.837 36.7898 262.155 36.7898 238.33L23.949 239.877ZM159.319 219.455L142.301 257.978L156.07 258.597L175.099 217.135L159.319 219.455ZM140.599 256.74L159.783 299.131L175.099 299.285L156.38 257.05L140.599 256.74ZM115.537 259.37L98.9827 298.666L113.525 298.976L129.615 257.978L115.537 259.37ZM353.479 173.198C373.591 173.198 387.979 153.24 392.465 111.005C397.107 68.9238 387.36 49.1211 367.093 49.1211C346.826 49.1211 332.438 68.9238 327.952 111.005C323.311 153.24 332.902 173.198 353.479 173.198ZM358.584 152.157C353.015 152.157 347.445 142.256 348.528 110.85C349.611 79.5987 355.954 69.5427 361.678 69.5427C367.093 69.5427 372.663 79.5987 371.58 110.85C370.497 142.256 363.999 152.157 358.584 152.157ZM276.898 83.4664L273.804 139.78C272.257 167.009 266.842 169.949 263.748 169.949C262.665 169.949 261.736 169.794 260.808 169.33V186.038C262.665 186.657 268.079 186.967 270.864 186.503C280.301 184.955 289.275 177.839 289.893 145.35L291.286 78.8252L276.898 83.4664ZM150.191 159.274L163.342 151.693C161.485 135.758 156.534 128.641 148.644 128.641C136.422 128.641 129.46 141.328 126.676 168.711C123.891 195.94 129.615 208.626 141.837 208.626C151.584 208.626 161.021 199.189 163.342 171.96L150.655 175.054C149.418 190.061 146.942 192.846 144.931 192.846C141.837 192.846 138.898 187.121 139.516 168.556C140.135 149.991 142.456 144.267 145.395 144.267C147.252 144.267 148.799 146.742 150.191 159.274ZM234.508 193.31C249.979 193.31 260.808 176.911 264.366 143.184C267.77 109.303 260.344 93.0584 245.028 93.0584C229.712 93.0584 218.573 109.303 215.014 143.184C211.611 176.911 218.882 193.31 234.508 193.31ZM238.685 175.363C234.508 175.363 230.64 167.319 231.413 143.029C232.496 118.74 236.828 110.695 240.696 110.695C244.564 110.695 248.741 118.74 247.813 143.029C246.884 167.319 242.398 175.363 238.685 175.363ZM194.283 214.195L178.039 216.516V299.285H183.918C209.909 299.285 220.429 282.267 220.429 266.951C220.429 251.635 210.528 245.292 200.162 245.756L187.631 246.375L192.891 260.608L196.604 260.453C201.245 260.299 204.494 263.702 204.494 268.808C204.494 278.864 195.985 285.361 193.046 285.361H189.023L194.129 294.18L194.283 214.195ZM68.5051 189.287L64.7921 205.996C84.4401 193.929 86.9155 182.171 86.9155 172.424C86.9155 159.428 77.9423 153.859 66.0298 159.274L57.0566 163.296V222.859L68.9692 220.848V171.186C70.9804 169.949 75.0029 171.032 75.0029 176.911C75.0029 179.695 74.2293 185.11 68.5051 189.287ZM102.386 214.969C113.525 214.969 121.416 203.52 123.891 179.695C126.366 155.87 120.951 144.422 109.812 144.422C98.6733 144.422 90.7832 155.87 88.3078 179.695C85.8325 203.52 91.0926 214.969 102.386 214.969ZM128.068 223.942V298.976L142.92 299.131V221.776L128.068 223.942ZM77.3235 257.669V269.891L96.3527 268.653V256.276L77.3235 257.669ZM65.4109 233.534V298.512L97.5904 298.666L97.7451 285.826L73.3011 286.29L78.8706 291.55V238.021L73.3011 244.364L96.8168 241.579V228.893L65.4109 233.534ZM14.5117 287.063V298.202L61.6979 298.512V285.98L14.5117 287.063ZM31.2203 238.949V249.16L53.4983 246.22L53.0342 235.545L31.2203 238.949ZM43.7517 236.938V295.263L56.9019 294.644V235.081L43.7517 236.938ZM278.6 83.157L278.754 97.3902L317.432 83.157L317.122 68.1503L278.6 83.157ZM303.508 73.7198V180.005L323.311 176.446V65.6749L303.508 73.7198ZM166.126 121.68V203.985L178.194 201.664V141.328L172.779 142.72L183.918 173.198L190.416 171.65L199.698 131.117L196.14 130.962V198.879L211.147 196.094V103.114L195.676 109.922L185.929 152.931L189.952 150.146L178.194 117.038L166.126 121.68ZM105.326 201.664C102.696 201.664 99.911 196.249 100.22 179.541C101.149 162.987 104.088 157.727 106.873 157.727C109.503 157.727 112.288 162.987 111.978 179.541C111.05 196.249 108.111 201.664 105.326 201.664Z" fill="#004517"/>
</svg>
