<svg width="651" height="487" viewBox="0 0 651 487" fill="none" xmlns="http://www.w3.org/2000/svg">
<path d="M650.754 281.465V0L61.668 240.673V349.132L0 361.61L0.479907 486.866H365.449V329.216L650.754 281.465Z" fill="#99ECFF"/>
<path d="M178.242 350.692L155.687 354.052L180.642 407.081L198.878 401.562L178.242 350.692ZM135.051 352.852C138.41 352.852 142.249 348.773 143.689 340.374C144.889 332.216 141.769 327.897 138.17 327.897C134.811 327.897 130.731 332.216 129.532 340.374C128.332 348.773 130.971 352.852 135.051 352.852ZM115.614 356.451C119.454 356.451 123.533 352.132 124.493 343.734C125.692 335.095 122.813 331.016 119.214 331.016C115.374 331.016 111.295 335.095 110.335 343.734C108.896 352.132 111.775 356.451 115.614 356.451ZM37.1496 372.048C37.1496 411.401 40.9889 445.234 22.5125 445.234L39.0692 446.434C57.7856 446.434 57.0658 406.602 57.0658 369.649L37.1496 372.048ZM247.109 340.374L220.714 400.123L242.07 401.083L271.584 336.775L247.109 340.374ZM218.075 398.203L247.829 463.95L271.584 464.19L242.55 398.683L218.075 398.203ZM179.202 402.282L153.527 463.231L176.083 463.71L201.038 400.123L179.202 402.282ZM548.251 268.628C579.445 268.628 601.76 237.674 608.719 172.167C615.917 106.9 600.8 76.1855 569.367 76.1855C537.933 76.1855 515.617 106.9 508.658 172.167C501.46 237.674 516.337 268.628 548.251 268.628ZM556.169 235.995C547.531 235.995 538.892 220.638 540.572 171.927C542.252 123.456 552.09 107.859 560.968 107.859C569.367 107.859 578.005 123.456 576.325 171.927C574.646 220.638 564.567 235.995 556.169 235.995ZM429.474 129.455L424.675 216.798C422.275 259.03 413.877 263.589 409.078 263.589C407.398 263.589 405.958 263.349 404.518 262.629V288.544C407.398 289.504 415.796 289.984 420.115 289.264C434.753 286.865 448.67 275.827 449.63 225.437L451.789 122.257L429.474 129.455ZM232.952 247.032L253.348 235.275C250.468 210.559 242.79 199.522 230.552 199.522C211.596 199.522 200.798 219.198 196.479 261.67C192.16 303.901 201.038 323.578 219.994 323.578C235.111 323.578 249.748 308.94 253.348 266.709L233.672 271.508C231.752 294.783 227.913 299.102 224.793 299.102C219.994 299.102 215.435 290.224 216.395 261.43C217.355 232.635 220.954 223.757 225.513 223.757C228.393 223.757 230.792 227.596 232.952 247.032ZM363.726 299.822C387.722 299.822 404.518 274.387 410.037 222.077C415.316 169.527 403.799 144.332 380.043 144.332C356.288 144.332 339.011 169.527 333.492 222.077C328.213 274.387 339.491 299.822 363.726 299.822ZM370.205 271.988C363.726 271.988 357.728 259.51 358.927 221.837C360.607 184.165 367.326 171.687 373.324 171.687C379.323 171.687 385.802 184.165 384.362 221.837C382.923 259.51 375.964 271.988 370.205 271.988ZM301.338 332.216L276.143 335.815V464.19H285.262C325.574 464.19 341.891 437.795 341.891 414.04C341.891 390.285 326.534 380.447 310.457 381.166L291.02 382.126L299.179 404.202L304.938 403.962C312.136 403.722 317.175 409.001 317.175 416.919C317.175 432.516 303.978 442.595 299.419 442.595H293.18L301.098 456.272L301.338 332.216ZM106.256 293.583L100.497 319.498C130.971 300.782 134.811 282.546 134.811 267.428C134.811 247.272 120.893 238.634 102.417 247.032L88.4997 253.271V345.653L106.976 342.534V265.509C110.095 263.589 116.334 265.269 116.334 274.387C116.334 278.706 115.135 287.105 106.256 293.583ZM158.806 333.416C176.083 333.416 188.32 315.659 192.16 278.706C195.999 241.753 187.6 223.997 170.324 223.997C153.047 223.997 140.81 241.753 136.97 278.706C133.131 315.659 141.289 333.416 158.806 333.416ZM198.638 347.333V463.71L221.674 463.95V343.974L198.638 347.333ZM119.934 399.643V418.599L149.448 416.68V397.483L119.934 399.643ZM101.457 362.21V462.991L151.367 463.231L151.607 443.314L113.695 444.034L122.333 452.193V369.169L113.695 379.007L150.168 374.688V355.012L101.457 362.21ZM22.5125 445.234V462.511L95.6983 462.991V443.554L22.5125 445.234ZM48.4274 370.608V386.445L82.9807 381.886L82.2609 365.329L48.4274 370.608ZM67.8637 367.489V457.952L88.2597 456.992V364.61L67.8637 367.489ZM432.113 128.975L432.353 151.051L492.341 128.975L491.862 105.7L432.113 128.975ZM470.746 114.338V279.186L501.46 273.667V101.861L470.746 114.338ZM257.667 188.724V316.379L276.383 312.78V219.198L267.985 221.357L285.262 268.628L295.34 266.229L309.737 203.361L304.218 203.121V308.461L327.493 304.141V159.929L303.498 170.487L288.381 237.194L294.62 232.875L276.383 181.525L257.667 188.724ZM163.365 312.78C159.286 312.78 154.967 304.381 155.447 278.466C156.886 252.791 161.446 244.633 165.765 244.633C169.844 244.633 174.163 252.791 173.683 278.466C172.243 304.381 167.684 312.78 163.365 312.78Z" fill="#FE443B"/>
</svg>
